Coordinates
version=1
nRows=6
nColumns=36
inDegrees=yes

Units are S.I. units (second, meters, Newtons, ...)
If the header above contains a line with 'inDegrees', this indicates whether rotational values are in degrees (yes) or radians (no).

endheader
time	pelvis_tilt	pelvis_list	pelvis_rotation	pelvis_tx	pelvis_ty	pelvis_tz	hip_flexion_r	hip_adduction_r	hip_rotation_r	knee_angle_r	knee_angle_r_beta	ankle_angle_r	subtalar_angle_r	mtp_angle_r	hip_flexion_l	hip_adduction_l	hip_rotation_l	knee_angle_l	knee_angle_l_beta	ankle_angle_l	subtalar_angle_l	mtp_angle_l	lumbar_extension	lumbar_bending	lumbar_rotation	arm_flex_r	arm_add_r	arm_rot_r	elbow_flex_r	pro_sup_r	arm_flex_l	arm_add_l	arm_rot_l	elbow_flex_l	pro_sup_l
      1.28333330	    -17.09622595	     -2.52115261	      5.58230104	     -0.09176647	      1.16971767	      0.41118021	     33.74286423	     -1.01647790	     -1.24799711	     33.53967434	      0.58537775	     19.75017292	     -5.38889830	     -7.49999987	     31.33461710	     -5.04792226	     -4.65481288	     27.26248064	      0.47582005	     14.76448663	     -7.97571868	     -7.49999987	    -13.37521724	     -2.87230277	      5.32803132	    -19.05410595	    -29.48165484	    108.33098825	     46.14250259	     16.38571461	    -12.89620895	    -29.55942177	    120.34198441	     31.12391436	     22.24083994
      1.30000000	    -17.57385634	     -2.59471292	      5.65823871	     -0.09196219	      1.16737752	      0.41134782	     34.53309739	     -1.13453743	     -1.94310847	     34.36576055	      0.59979567	     20.53739322	     -5.21902320	     -7.49999987	     32.02903334	     -5.07232021	     -4.54913495	     28.16365590	      0.49154852	     15.21241070	     -7.98234993	     -7.49999987	    -13.98143463	     -2.94691106	      5.48587586	    -19.15166873	    -29.95373386	    105.69876104	     46.70149713	     19.11071759	    -11.77448450	    -30.50695009	    117.51092439	     33.58101980	     23.34753875
      1.31666670	    -18.05776983	     -2.64528028	      5.77334757	     -0.09188294	      1.16050820	      0.41118531	     35.50895980	     -1.25564453	     -2.41831526	     35.64798866	      0.62217477	     21.52949038	     -5.20086058	     -7.49999987	     32.91476578	     -5.12951878	     -4.53823100	     29.44437382	      0.51390127	     15.82217284	     -7.83368958	     -7.49999987	    -14.59713284	     -2.97162172	      5.18092876	    -18.18747044	    -30.15980076	    104.21662059	     46.74449096	     23.46680965	    -10.74916358	    -30.70109504	    115.37793539	     34.81297051	     25.94668285
      1.33333330	    -18.57715405	     -2.63277710	      5.80447769	     -0.09179238	      1.16083267	      0.41117700	     36.65006471	     -1.44000991	     -2.94633696	     36.98230267	      0.64546295	     22.39071782	     -4.94370405	     -7.49999987	     33.96416258	     -5.10226022	     -4.40275076	     30.80043222	      0.53756895	     16.73543366	     -7.57314549	     -7.49999987	    -15.42129128	     -3.02601153	      4.65259122	    -16.43426737	    -30.22047632	    103.11826392	     46.99981895	     26.03561824	     -9.20141878	    -30.46936092	    114.18302409	     35.78540013	     27.97967353
      1.35000000	    -19.01364017	     -2.67375938	      5.75593050	     -0.08264783	      1.15441110	      0.41386123	     37.23540382	     -1.44888944	     -3.42958128	     37.65975595	      0.65728674	     23.28621121	     -4.60010904	     -7.49999987	     34.53772775	     -5.17573619	     -4.35088869	     31.68631096	      0.55303045	     17.39546875	     -7.21055756	     -7.49999987	    -15.98143863	     -3.10309051	      4.33288201	    -14.19232368	    -30.26157007	    101.98119070	     47.40781311	     27.07596447	     -7.30174859	    -30.41690529	    112.82132179	     36.84914922	     27.92555010
      1.36666670	    -19.79845424	     -2.67162210	      5.66872878	     -0.08212065	      1.15330969	      0.41376652	     38.36091303	     -1.36492122	     -3.33474432	     38.47287476	      0.67147834	     23.98804465	     -4.62039807	     -7.49999987	     35.66935850	     -5.19425108	     -4.16265620	     32.85945929	      0.57350576	     17.70704131	     -7.27630918	     -7.49999987	    -16.57330808	     -2.88906232	      3.41880436	    -11.18522162	    -30.48750176	    100.75397163	     48.25029094	     27.63600881	     -4.32515171	    -30.37967642	    111.77063910	     37.83998560	     28.33600458
